<?xml version="1.0" encoding="UTF-8" standalone="no"?>
<svg
   xmlns:dc="http://purl.org/dc/elements/1.1/"
   xmlns:cc="http://creativecommons.org/ns#"
   xmlns:rdf="http://www.w3.org/1999/02/22-rdf-syntax-ns#"
   xmlns:svg="http://www.w3.org/2000/svg"
   xmlns="http://www.w3.org/2000/svg"
   xmlns:xlink="http://www.w3.org/1999/xlink"
   xmlns:sodipodi="http://sodipodi.sourceforge.net/DTD/sodipodi-0.dtd"
   xmlns:inkscape="http://www.inkscape.org/namespaces/inkscape"
   version="1.1"
   x="0px"
   y="0px"
   viewBox="0 0 100 100"
   enable-background="new 0 0 100 100"
   xml:space="preserve"
   id="svg3853"
   sodipodi:docname="logo.svg"
   inkscape:version="0.92.2 (5c3e80d, 2017-08-06)"
   width="100"
   height="100"
   inkscape:export-filename="/home/andrei/Dev/EasySearch/icon-128.png"
   inkscape:export-xdpi="122.88"
   inkscape:export-ydpi="122.88"><metadata
     id="metadata3859"><rdf:RDF><cc:Work
         rdf:about=""><dc:format>image/svg+xml</dc:format><dc:type
           rdf:resource="http://purl.org/dc/dcmitype/StillImage" /><dc:title /></cc:Work></rdf:RDF></metadata><defs
     id="defs3857"><linearGradient
       inkscape:collect="always"
       id="linearGradient1105"><stop
         style="stop-color:#00feff;stop-opacity:1;"
         offset="0"
         id="stop1101" /><stop
         style="stop-color:#00feff;stop-opacity:0;"
         offset="1"
         id="stop1103" /></linearGradient><linearGradient
       inkscape:collect="always"
       id="linearGradient963"><stop
         style="stop-color:#363959;stop-opacity:1;"
         offset="0"
         id="stop959" /><stop
         style="stop-color:#3e1100;stop-opacity:1"
         offset="1"
         id="stop961" /></linearGradient><linearGradient
       inkscape:collect="always"
       xlink:href="#linearGradient963"
       id="linearGradient965"
       x1="1.7910908"
       y1="74.619858"
       x2="79.935249"
       y2="118.81403"
       gradientUnits="userSpaceOnUse" /><linearGradient
       inkscape:collect="always"
       xlink:href="#linearGradient1105"
       id="linearGradient1107"
       x1="25.973797"
       y1="14.112167"
       x2="25.828074"
       y2="67.211151"
       gradientUnits="userSpaceOnUse" /></defs><sodipodi:namedview
     pagecolor="#ffffff"
     bordercolor="#666666"
     borderopacity="1"
     objecttolerance="10"
     gridtolerance="10"
     guidetolerance="10"
     inkscape:pageopacity="0"
     inkscape:pageshadow="2"
     inkscape:window-width="1920"
     inkscape:window-height="1053"
     id="namedview3855"
     showgrid="false"
     inkscape:zoom="8.0000001"
     inkscape:cx="40.223953"
     inkscape:cy="51.764798"
     inkscape:window-x="0"
     inkscape:window-y="27"
     inkscape:window-maximized="1"
     inkscape:current-layer="layer1" /><rect
     style="fill:#000000;fill-opacity:0"
     id="rect4666"
     width="90.04113"
     height="71.386604"
     x="0.29377204"
     y="-24.412457" /><g
     inkscape:groupmode="layer"
     id="layer1"
     inkscape:label="bg"
     transform="translate(0,-25)"><rect
       style="fill:url(#linearGradient965);fill-opacity:1;stroke:#00feff;stroke-width:1.70571446;stroke-opacity:1"
       id="rect4668"
       width="95"
       height="95"
       x="2.6439481"
       y="27.119858"
       ry="14.556453" /></g><g
     inkscape:groupmode="layer"
     id="layer2"
     inkscape:label="fg"
     transform="translate(0,-25)"><g
       id="g933"
       transform="translate(30.985805,26.710288)"
       style="fill:#00feff;fill-opacity:1"><g
         id="g913"
         transform="matrix(1.7844466,0,0,1.7844466,-27.024736,2.4030579)"
         style="fill:#00feff;fill-opacity:1"><circle
           id="circle907"
           r="4"
           cy="27.497803"
           cx="39.999512"
           style="fill:#00feff;fill-opacity:1" /><circle
           id="circle909"
           r="4"
           cy="27.496826"
           cx="12"
           style="fill:#00feff;fill-opacity:1" /><path
           id="path911"
           d="m 40,17.5 c -1.22998,0 -2.399963,0.219971 -3.48999,0.630005 l -1.52002,-1.52002 -0.589966,-0.46997 c -0.669982,-0.539917 -1.549987,-0.739991 -2.390014,-0.559937 -0.630005,0.139893 -1.179993,0.469971 -1.589966,0.949951 H 28.830017 C 28.420044,15.350098 27.320007,14.5 26,14.5 c -1.320007,0 -2.419983,0.850098 -2.829956,2.030029 h -1.600037 c -0.409973,-0.47998 -0.960022,-0.810058 -1.589966,-0.949951 -0.840026,-0.180054 -1.720031,0.02002 -2.390014,0.559937 l -0.580017,0.46997 -1.52002,1.52002 C 14.400024,17.719971 13.230042,17.5 12,17.5 c -5.5100098,0 -10,4.47998 -10,10 0,5.51001 4.4899902,10 10,10 5.51001,0 10,-4.48999 10,-10 0,-0.341431 -0.0365,-0.675537 -0.07007,-1.009888 L 23.670044,24.75 c 0.349975,-0.359985 0.589966,-0.790039 0.709961,-1.25 h 3.22998 c 0.130005,0.459961 0.370056,0.900024 0.720032,1.25 l 1.719971,1.719971 v 0.01001 C 30.020019,26.810059 30,27.160034 30,27.5 c 0,5.51001 4.48999,10 10,10 5.51001,0 10,-4.48999 10,-10 0,-5.52002 -4.48999,-10 -10,-10 z m -28,16 c -3.3099976,0 -6,-2.689941 -6,-6 0,-3.310059 2.6900024,-6 6,-6 3.309998,0 6,2.689941 6,6 0,3.310059 -2.690002,6 -6,6 z M 27.820007,21.449951 c 0,0.01001 -0.01001,0.03003 -0.02002,0.05005 h -3.609986 c -0.01001,-0.02002 -0.01001,-0.04004 -0.01996,-0.05005 L 22.67999,18.530029 h 0.520019 C 23.619995,19.679932 24.710022,20.5 26,20.5 c 1.290039,0 2.380005,-0.820068 2.799988,-1.969971 h 0.51001 z M 40,33.5 c -3.309998,0 -6,-2.689941 -6,-6 0,-3.310059 2.690002,-6 6,-6 3.309998,0 6,2.689941 6,6 0,3.310059 -2.690002,6 -6,6 z"
           inkscape:connector-curvature="0"
           style="fill:url(#linearGradient1107);fill-opacity:1" /></g></g></g></svg>